<svg width="40" height="37" viewBox="0 0 40 37" fill="none" xmlns="http://www.w3.org/2000/svg">
<rect width="40" height="36.9288" rx="18.4644" fill="black"/>
<path d="M20.9825 24.927C13.466 24.927 9.17864 20.0753 9 12.002H12.7651C12.8888 17.9276 15.6646 20.4376 17.8632 20.9551V12.002H21.4085V17.1125C23.5796 16.8925 25.8607 14.5637 26.6302 12.002H30.1755C29.8855 13.3305 29.3075 14.5885 28.4776 15.6971C27.6477 16.8058 26.5837 17.7413 25.3523 18.4451C26.7269 19.0882 27.941 19.9984 28.9145 21.1158C29.888 22.2331 30.5988 23.5321 31 24.927H27.0974C26.7373 23.7154 26.0054 22.6308 24.9934 21.8092C23.9814 20.9875 22.7343 20.4654 21.4085 20.3082V24.927H20.9825V24.927Z" fill="white"/>
</svg>
