<svg width="40" height="37" viewBox="0 0 40 37" fill="none" xmlns="http://www.w3.org/2000/svg">
<rect width="40" height="36.9288" rx="18.4644" fill="black"/>
<path d="M27.9268 11.1364C25.9512 9.31885 23.3171 8.30908 20.5366 8.30908C14.7561 8.30908 10.0732 12.6174 10.0732 17.9356C10.0732 19.6185 10.5854 21.3015 11.4634 22.7152L10 27.6967L15.561 26.3504C17.0976 27.0909 18.7805 27.4948 20.5366 27.4948C26.3171 27.4948 31 23.1864 31 17.8683C30.9268 15.3775 29.9024 12.954 27.9268 11.1364ZM25.5854 21.3688C25.3659 21.9074 24.3415 22.4459 23.8293 22.5132C23.3902 22.5805 22.8049 22.5805 22.2195 22.4459C21.8537 22.3113 21.3415 22.1766 20.7561 21.9074C18.122 20.8976 16.439 18.4741 16.2927 18.2722C16.1463 18.1375 15.1951 16.9931 15.1951 15.7814C15.1951 14.5697 15.8537 14.0311 16.0732 13.7619C16.2927 13.4926 16.5854 13.4926 16.8049 13.4926C16.9512 13.4926 17.1707 13.4926 17.3171 13.4926C17.4634 13.4926 17.6829 13.4253 17.9024 13.8965C18.122 14.3677 18.6341 15.5794 18.7073 15.6468C18.7805 15.7814 18.7805 15.916 18.7073 16.0507C18.6341 16.1853 18.561 16.3199 18.4146 16.4546C18.2683 16.5892 18.1219 16.7912 18.0488 16.8585C17.9024 16.9931 17.7561 17.1278 17.9024 17.3297C18.0488 17.599 18.561 18.3395 19.3659 19.0127C20.3902 19.8205 21.1951 20.0898 21.4878 20.2244C21.7805 20.359 21.9268 20.2917 22.0732 20.1571C22.2195 20.0224 22.7317 19.4839 22.878 19.2146C23.0244 18.9454 23.2439 19.0127 23.4634 19.08C23.6829 19.1473 25 19.7532 25.2195 19.8878C25.5122 20.0224 25.6585 20.0898 25.7317 20.1571C25.8049 20.359 25.8049 20.8303 25.5854 21.3688Z" fill="white"/>
</svg>
