<svg width="40" height="37" viewBox="0 0 40 37" fill="none" xmlns="http://www.w3.org/2000/svg">
<rect width="40" height="36.9288" rx="18.4644" fill="black"/>
<path d="M20 10.9006C22.6506 10.9006 23.0121 10.9006 24.0964 10.9006C25.0602 10.9006 25.5422 11.1231 25.9036 11.2343C26.3855 11.4568 26.747 11.568 27.1084 11.9017C27.4699 12.2354 27.7108 12.5691 27.8313 13.014C27.9518 13.3477 28.0723 13.7927 28.1928 14.6825C28.1928 15.6836 28.1928 15.9061 28.1928 18.4644C28.1928 21.0227 28.1928 21.2452 28.1928 22.2463C28.1928 23.1361 27.9518 23.581 27.8313 23.9147C27.5904 24.3597 27.4699 24.6933 27.1084 25.027C26.747 25.3607 26.3855 25.5832 25.9036 25.6944C25.5422 25.8057 25.0602 25.9169 24.0964 26.0281C23.0121 26.0281 22.7711 26.0281 20 26.0281C17.2289 26.0281 16.988 26.0281 15.9036 26.0281C14.9398 26.0281 14.4578 25.8057 14.0964 25.6944C13.6145 25.472 13.253 25.3607 12.8916 25.027C12.5301 24.6933 12.2892 24.3597 12.1687 23.9147C12.0482 23.581 11.9277 23.1361 11.8072 22.2463C11.8072 21.2452 11.8072 21.0227 11.8072 18.4644C11.8072 15.9061 11.8072 15.6836 11.8072 14.6825C11.8072 13.7927 12.0482 13.3477 12.1687 13.014C12.4096 12.5691 12.5301 12.2354 12.8916 11.9017C13.253 11.568 13.6145 11.3456 14.0964 11.2343C14.4578 11.1231 14.9398 11.0119 15.9036 10.9006C16.988 10.9006 17.3494 10.9006 20 10.9006ZM20 9.23218C17.2289 9.23218 16.988 9.23218 15.9036 9.23218C14.8193 9.23218 14.0964 9.45464 13.494 9.6771C12.8916 9.89957 12.2892 10.2333 11.6867 10.7894C11.0843 11.3456 10.8434 11.7905 10.4819 12.4579C10.241 13.014 10.1205 13.6814 10 14.6825C10 15.6836 10 16.0173 10 18.4644C10 21.0227 10 21.2452 10 22.2463C10 23.2473 10.241 23.9147 10.4819 24.4709C10.7229 25.027 11.0843 25.5832 11.6867 26.1394C12.2892 26.6955 12.7711 26.918 13.494 27.2517C14.0964 27.4741 14.8193 27.5854 15.9036 27.6966C16.988 27.6966 17.3494 27.6966 20 27.6966C22.6506 27.6966 23.0121 27.6966 24.0964 27.6966C25.1807 27.6966 25.9036 27.4741 26.506 27.2517C27.1084 27.0292 27.7108 26.6955 28.3133 26.1394C28.9157 25.5832 29.1566 25.1383 29.5181 24.4709C29.759 23.9147 29.8795 23.2473 30 22.2463C30 21.2452 30 20.9115 30 18.4644C30 16.0173 30 15.6836 30 14.6825C30 13.6814 29.759 13.014 29.5181 12.4579C29.2771 11.9017 28.9157 11.3456 28.3133 10.7894C27.7108 10.2333 27.2289 10.0108 26.506 9.6771C25.9036 9.45464 25.1807 9.34341 24.0964 9.23218C23.0121 9.23218 22.7711 9.23218 20 9.23218Z" fill="white"/>
<path d="M20 13.6814C17.1084 13.6814 14.8193 15.7948 14.8193 18.4644C14.8193 21.1339 17.1084 23.2473 20 23.2473C22.8916 23.2473 25.1807 21.1339 25.1807 18.4644C25.1807 15.7948 22.8916 13.6814 20 13.6814ZM20 21.5789C18.1928 21.5789 16.6265 20.2441 16.6265 18.4644C16.6265 16.7959 18.0723 15.3499 20 15.3499C21.8072 15.3499 23.3735 16.6847 23.3735 18.4644C23.3735 20.1329 21.8072 21.5789 20 21.5789Z" fill="white"/>
<path d="M25.3012 14.6825C25.9666 14.6825 26.506 14.1845 26.506 13.5702C26.506 12.9559 25.9666 12.4579 25.3012 12.4579C24.6358 12.4579 24.0964 12.9559 24.0964 13.5702C24.0964 14.1845 24.6358 14.6825 25.3012 14.6825Z" fill="white"/>
</svg>
